<svg width="145" height="48" viewBox="0 0 145 48" fill="none" xmlns="http://www.w3.org/2000/svg">
<g id="Company logo" clip-path="url(#clip0_296_9690)">
<path id="D-Copy" fill-rule="evenodd" clip-rule="evenodd" d="M2 38.9361C2 40.7945 3.20602 41.9998 5.06513 41.9998L14.0207 42C19.3632 42 23.7335 40.1931 26.7047 37.0299H2V38.9361ZM14.0207 8.00017L5.06513 8C3.20602 8 2 9.20546 2 11.0639V12.9701H26.7047C23.7335 9.80692 19.3632 8.00017 14.0207 8.00017ZM21.8363 29.8446C21.8363 31.348 22.8161 32.3235 24.3267 32.3235H29.693C30.3013 30.8146 30.71 29.1557 30.9 27.3656H24.3267C22.8161 27.3656 21.8363 28.3409 21.8363 29.8446ZM14.3981 20.1677C14.3981 21.6713 15.3779 22.6466 16.8885 22.6466H30.9C30.71 20.8565 30.3013 19.1977 29.693 17.6888H16.8885C15.3779 17.6888 14.3981 18.664 14.3981 20.1677ZM16.8868 29.8446C16.8868 28.3409 15.907 27.3656 14.3964 27.3656H2V32.3235H14.3964C15.907 32.3235 16.8868 31.3482 16.8868 29.8446ZM9.4487 20.1677C9.4487 18.664 8.46888 17.6888 6.95826 17.6888H2V22.6466H6.95826C8.46888 22.6466 9.4487 21.6713 9.4487 20.1677Z" fill="#0062FF"/>
<g id="logo">
<g id="Group">
<path id="Fill-4" fill-rule="evenodd" clip-rule="evenodd" d="M65.0228 24.4883C65.4219 22.548 66.7109 21.5615 68.4052 21.5615C70.0849 21.5615 71.3132 22.5923 71.705 24.4883H65.0228ZM68.4973 18.2002C64.1833 18.2002 61.5 21.6543 61.5 25.8792C61.5 30.2548 64.3673 33.5002 68.6289 33.5002C71.568 33.5002 73.3508 32.1382 74.4542 30.423L71.7106 28.6666C71.0208 29.6109 69.9171 30.1098 68.7341 30.1098C66.7989 30.1098 65.503 29.2018 65.0613 27.386H72.3028C72.3022 27.3883 72.3017 27.3907 72.301 27.3932L74.9409 27.4087C75.041 26.9309 75.1 26.4372 75.1 25.8792C75.1 22.1991 72.8377 18.2002 68.4973 18.2002Z" fill="#0062FF"/>
<path id="Fill-6" fill-rule="evenodd" clip-rule="evenodd" d="M50.4498 30.1001C47.7955 30.1001 46.1998 28.1972 46.1998 25.85C46.1998 23.5028 47.8261 21.6001 50.4498 21.6001C53.0736 21.6001 54.6998 23.5028 54.6998 25.85C54.6998 28.1972 53.1041 30.1001 50.4498 30.1001ZM54.4106 20.4465C53.3507 19.1735 51.8458 18.3931 49.9779 18.3931C45.8026 18.3931 42.7998 21.7751 42.7998 25.9466C42.7998 30.1183 45.7741 33.5001 49.9779 33.5001C51.8458 33.5001 53.3507 32.7198 54.4106 31.4468V33.1281H58.0998V13.1001H54.4106V20.4465Z" fill="#0062FF"/>
<path id="Combined-Shape" fill-rule="evenodd" clip-rule="evenodd" d="M86.3817 25.5993C87.3833 26.2989 88.0181 27.3481 88.0181 28.7325C88.0181 31.5305 86.1321 33.4718 82.606 33.4718C79.2877 33.4718 77.5083 31.7715 76.7998 30.0543L79.8455 28.2758C79.8455 28.2758 80.2555 30.1315 82.5514 30.1315C83.9727 30.1315 84.4101 29.5034 84.4101 28.9486C84.4101 28.6916 84.328 28.2187 83.3168 27.8189C81.2855 27.0162 77.3581 26.6561 77.3581 22.994C77.3581 19.9965 79.7078 18.3977 82.606 18.3977C85.3161 18.3977 87.057 20.084 87.7179 21.396L84.7381 23.1368C84.7381 23.1368 84.1641 21.6807 82.6334 21.6807C81.1028 21.6807 80.9661 22.5659 80.9661 22.8228C80.9661 23.5722 81.7301 23.8799 83.3714 24.3646C84.3432 24.6515 85.3413 24.912 86.3848 25.5966C86.3838 25.5975 86.3827 25.5984 86.3817 25.5993ZM146.5 22.3374H143.411V28.2757C143.411 30.1316 145.215 29.7318 146.5 29.7318V33.0721C146.5 33.0721 145.823 33.1863 144.641 33.1863C142.017 33.1863 139.885 32.387 139.885 28.2757V22.3374H137.507V18.7972H139.885V14.8003H143.411V18.7972H146.5V22.3374ZM96.7837 29.8745C98.2469 29.8745 99.3719 29.1455 99.9405 27.9496L102.997 29.7801C101.799 31.9739 99.5679 33.5003 96.7837 33.5003C92.5609 33.5003 89.6088 30.1258 89.6088 25.9633C89.6088 21.8006 92.5882 18.4262 96.7837 18.4262C99.5271 18.4262 101.75 19.9276 102.961 22.0923L99.911 23.9646C99.3314 22.7843 98.2153 22.0519 96.7837 22.0519C94.65 22.0519 93.1349 23.8031 93.1349 25.9633C93.1349 28.1234 94.6361 29.8745 96.7837 29.8745Z" fill="#0062FF"/>
<path id="Combined-Shape_2" fill-rule="evenodd" clip-rule="evenodd" d="M129.197 29.8354C126.9 29.8354 125.519 28.0447 125.519 25.8359C125.519 23.6271 126.926 21.8366 129.197 21.8366C131.467 21.8366 132.874 23.6271 132.874 25.8359C132.874 28.0447 131.494 29.8354 129.197 29.8354ZM129.635 18.3475C133.512 18.3475 136.3 21.7003 136.3 25.8359C136.3 29.9716 133.538 33.3243 129.635 33.3243C127.901 33.3243 126.503 32.5506 125.519 31.2886V38.6001H122.094V18.7448H125.519V20.3832C126.503 19.1211 127.901 18.3475 129.635 18.3475ZM115.509 32.9554V18.773H118.934V32.9554H115.509ZM109.125 21.1956C109.786 19.477 111.133 18.494 113.161 18.4896V22.5741C110.783 22.3338 109.065 23.5968 109.128 26.5805C109.127 26.5784 109.126 26.5761 109.125 26.5738V32.9554H105.7V18.7732H109.125V21.1956ZM115.509 16.8803V13.1001H119.047V16.8803H115.509Z" fill="#0062FF"/>
</g>
</g>
</g>
<defs>
<clipPath id="clip0_296_9690">
<rect width="145" height="48" fill="white"/>
</clipPath>
</defs>
</svg>
